<svg width="512px" height="512px" viewBox="0 0 512 512" xmlns="http://www.w3.org/2000/svg" xmlns:xlink="http://www.w3.org/1999/xlink">
    <defs>
        <path d="M256,0.558879104 C397.384896,0.558879104 512,115.173983 512,256.558879 C512,397.943775 397.384896,512.558879 256,512.558879 C114.615104,512.558879 0,397.943775 0,256.558879 C0,115.173983 114.615104,0.558879104 256,0.558879104 Z M188.333274,198.65792 L127.160327,198.65792 L127.160327,382.701558 L188.333274,382.701558 L188.333274,198.65792 Z M338.516168,194.33634 C306.00164,194.33634 291.49902,212.225035 283.366965,224.737994 L283.366965,224.737994 L283.366965,198.65792 L222.166637,198.65792 C222.988057,215.921423 222.166637,382.696995 222.166637,382.696995 L222.166637,382.696995 L283.362402,382.696995 L283.362402,279.910015 C283.362402,274.392813 283.777675,268.930372 285.38857,264.996684 C289.824236,253.989661 299.868373,242.622126 316.775928,242.622126 C338.931441,242.622126 347.766266,259.506863 347.766266,284.231595 L347.766266,284.231595 L347.766266,382.701558 L408.957467,382.701558 L408.957467,277.158259 C408.957467,220.640023 378.774858,194.33634 338.516168,194.33634 Z M283.366965,224.737994 L283.366965,225.340369 L282.960819,225.340369 C283.070341,225.144141 283.243752,224.943349 283.366965,224.737994 L283.366965,224.737994 Z M158.150665,109.944597 C137.218154,109.944597 123.523263,123.685122 123.523263,141.738101 C123.523263,159.407751 136.821134,173.545296 157.347499,173.545296 L157.744519,173.545296 C179.087739,173.545296 192.35823,159.407751 192.35823,141.738101 C191.952084,123.685122 179.087739,109.944597 158.150665,109.944597 Z" id="path-1"></path>
    </defs>
    <g id="Page-1" stroke="none" stroke-width="1" fill="none" fill-rule="evenodd">
        <g id="linkedin" transform="translate(0.000000, -0.563443)">
            <mask id="mask-2" fill="white">
                <use xlink:href="#path-1"></use>
            </mask>
            <use id="Combined-Shape" fill="#FFFFFF" fill-rule="nonzero" xlink:href="#path-1"></use>
        </g>
    </g>
</svg>